<svg width="245" height="245" xmlns="http://www.w3.org/2000/svg" xmlns:xlink="http://www.w3.org/1999/xlink" overflow="hidden"><defs><clipPath id="clip0"><rect x="73" y="212" width="245" height="245"/></clipPath><clipPath id="clip1"><rect x="74" y="212" width="244" height="245"/></clipPath><clipPath id="clip2"><rect x="74" y="212" width="244" height="245"/></clipPath><clipPath id="clip3"><rect x="74" y="212" width="244" height="245"/></clipPath></defs><g clip-path="url(#clip0)" transform="translate(-73 -212)"><g clip-path="url(#clip1)"><g clip-path="url(#clip2)"><g clip-path="url(#clip3)"><path d="M122 0C189.401-0.0192661 244.056 54.6041 244.075 122.005 244.093 189.405 189.471 244.06 122.07 244.079 54.6691 244.099 0.0144415 189.475-0.00482462 122.075-0.0140803 89.6944 12.8453 58.6378 35.7422 35.7422 58.5894 12.8189 89.6355-0.0455048 122-7.57476e-06ZM104.347 116.003C110.146 112.032 113.064 106.849 112.568 94.9948L112.568 64.5147C112.568 60.2653 104.784 59.749 104.407 64.5147L104.109 89.2363C104.109 91.1555 102.553 92.7113 100.634 92.7113 98.715 92.7113 97.1592 91.1555 97.1592 89.2363L97.457 63.6608C97.457 59.0938 89.971 58.637 89.8916 63.6608 89.8916 70.7695 89.5938 82.1475 89.5938 89.2363 89.8632 90.8813 88.7482 92.4333 87.1033 92.7029 85.4582 92.9724 83.9062 91.8574 83.6367 90.2123 83.5837 89.8892 83.5837 89.5596 83.6367 89.2363L83.9346 63.8395C83.7376 61.556 81.7265 59.8646 79.443 60.0616 78.7245 60.1237 78.0347 60.3717 77.4414 60.7816 74.7012 62.529 75.2572 66.0436 75.138 69.0221L74.1849 98.1917C74.3239 106.671 76.5479 113.561 83.1999 116.5 84.4759 117.007 85.8098 117.353 87.1712 117.532L84.9274 177.222C84.8174 181.344 88.0697 184.774 92.1916 184.884 92.226 184.885 92.2601 184.886 92.2943 184.886L93.2077 184.886C97.8569 184.811 101.565 180.981 101.489 176.332 101.489 176.311 101.489 176.29 101.488 176.269L99.5023 117.512C101.207 117.332 102.86 116.819 104.367 116.003ZM140.09 175.077 139.99 122.635C117.572 109.689 124.72 59.8086 147.139 60.0866 174.382 60.4043 177.619 116.301 154.188 122.437L155.915 175.335C156.253 187.507 140.03 188.639 140.03 175.077ZM197.158 46.8421C155.618 5.37745 88.3293 5.43851 46.8646 46.9785 5.39993 88.5185 5.46101 155.807 47.001 197.272 88.5409 238.736 155.83 238.676 197.294 197.135 217.197 177.197 228.369 150.172 228.353 122 228.373 93.7939 217.146 66.744 197.158 46.8421Z" fill="#66BCB6" fill-rule="nonzero" fill-opacity="1" transform="matrix(1 0 0 1.0041 74 212)"/></g></g></g></g></svg>